<svg xmlns="http://www.w3.org/2000/svg" version="1.1" xmlns:xlink="http://www.w3.org/1999/xlink" width="1000" height="1000"><style>
    #light-icon {
      display: inline;
    }
    #dark-icon {
      display: none;
    }

    @media (prefers-color-scheme: dark) {
      #light-icon {
        display: none;
      }
      #dark-icon {
        display: inline;
      }
    }
  </style><g id="light-icon"><svg xmlns="http://www.w3.org/2000/svg" version="1.1" xmlns:xlink="http://www.w3.org/1999/xlink" width="1000" height="1000"><g><g transform="matrix(31.25,0,0,31.25,0,0)"><svg xmlns="http://www.w3.org/2000/svg" version="1.1" xmlns:xlink="http://www.w3.org/1999/xlink" width="32" height="32"><svg width="32" height="32" viewBox="0 0 32 32" fill="none" xmlns="http://www.w3.org/2000/svg">
<g clip-path="url(#clip0_2002_12)">
<path d="M12.471 25.3613C11.2151 25.3613 10.3204 24.957 9.7871 24.1484C9.25376 23.3226 9.17634 22.2301 9.55484 20.871L13.1677 7.86452C13.7699 7.86452 14.3376 7.83011 14.871 7.76129C15.4215 7.67527 15.9462 7.56344 16.4452 7.42581L12.5226 21.5419C12.3161 22.2989 12.2989 22.8667 12.471 23.2452C12.643 23.6065 13.0043 23.7871 13.5548 23.7871C14.0022 23.7871 14.4065 23.6495 14.7677 23.3742C15.129 23.0989 15.4731 22.6602 15.8 22.0581L16.2645 21.1806H17.271L16.4968 22.6516C16.2043 23.1849 15.8688 23.6581 15.4903 24.071C15.1118 24.4667 14.6731 24.7763 14.1742 25C13.6925 25.2409 13.1247 25.3613 12.471 25.3613ZM8.90968 12.6903L9.16774 11.6839H19.2323L18.9484 12.6903H8.90968ZM21.246 25.3161C20.7191 25.3161 20.2825 25.1581 19.9363 24.8419C19.6051 24.5258 19.4395 24.1344 19.4395 23.6677C19.4395 23.1258 19.6352 22.6742 20.0266 22.3129C20.418 21.9366 20.9073 21.7484 21.4944 21.7484C22.0363 21.7484 22.4728 21.9065 22.804 22.2226C23.1503 22.5387 23.3234 22.9376 23.3234 23.4194C23.3234 23.9462 23.1202 24.3978 22.7137 24.7742C22.3223 25.1355 21.8331 25.3161 21.246 25.3161Z" fill="#161616"></path>
</g>
<defs>
<clipPath id="clip0_2002_12">
<rect width="32" height="32" rx="8" fill="white"></rect>
</clipPath>
</defs>
</svg></svg></g></g></svg></g><g id="dark-icon"><svg xmlns="http://www.w3.org/2000/svg" version="1.1" xmlns:xlink="http://www.w3.org/1999/xlink" width="1000" height="1000"><g><g transform="matrix(31.25,0,0,31.25,0,0)"><svg xmlns="http://www.w3.org/2000/svg" version="1.1" xmlns:xlink="http://www.w3.org/1999/xlink" width="32" height="32"><svg width="32" height="32" viewBox="0 0 32 32" fill="none" xmlns="http://www.w3.org/2000/svg">
<g clip-path="url(#clip0_2002_16)">
<path d="M12.471 25.3613C11.2151 25.3613 10.3204 24.957 9.7871 24.1484C9.25376 23.3226 9.17634 22.2301 9.55484 20.871L13.1677 7.86452C13.7699 7.86452 14.3376 7.83011 14.871 7.76129C15.4215 7.67527 15.9462 7.56344 16.4452 7.42581L12.5226 21.5419C12.3161 22.2989 12.2989 22.8667 12.471 23.2452C12.643 23.6065 13.0043 23.7871 13.5548 23.7871C14.0022 23.7871 14.4065 23.6495 14.7677 23.3742C15.129 23.0989 15.4731 22.6602 15.8 22.0581L16.2645 21.1806H17.271L16.4968 22.6516C16.2043 23.1849 15.8688 23.6581 15.4903 24.071C15.1118 24.4667 14.6731 24.7763 14.1742 25C13.6925 25.2409 13.1247 25.3613 12.471 25.3613ZM8.90968 12.6903L9.16774 11.6839H19.2323L18.9484 12.6903H8.90968ZM21.246 25.3161C20.7191 25.3161 20.2825 25.1581 19.9363 24.8419C19.6051 24.5258 19.4395 24.1344 19.4395 23.6677C19.4395 23.1258 19.6352 22.6742 20.0266 22.3129C20.418 21.9366 20.9073 21.7484 21.4944 21.7484C22.0363 21.7484 22.4728 21.9065 22.804 22.2226C23.1503 22.5387 23.3234 22.9376 23.3234 23.4194C23.3234 23.9462 23.1202 24.3978 22.7137 24.7742C22.3223 25.1355 21.8331 25.3161 21.246 25.3161Z" fill="#F8F8F8"></path>
</g>
<defs>
<clipPath id="clip0_2002_16">
<rect width="32" height="32" rx="8" fill="white"></rect>
</clipPath>
</defs>
</svg></svg></g></g></svg></g></svg>