<svg xmlns="http://www.w3.org/2000/svg" version="1.1" xmlns:xlink="http://www.w3.org/1999/xlink" width="1000" height="1000"><style>
    #light-icon {
      display: inline;
    }
    #dark-icon {
      display: none;
    }

    @media (prefers-color-scheme: dark) {
      #light-icon {
        display: none;
      }
      #dark-icon {
        display: inline;
      }
    }
  </style><g id="light-icon"><svg xmlns="http://www.w3.org/2000/svg" version="1.1" xmlns:xlink="http://www.w3.org/1999/xlink" width="1000" height="1000"><g><g transform="matrix(31.25,0,0,31.25,0,0)"><svg xmlns="http://www.w3.org/2000/svg" version="1.1" xmlns:xlink="http://www.w3.org/1999/xlink" width="32" height="32"><svg width="32" height="32" viewBox="0 0 32 32" fill="none" xmlns="http://www.w3.org/2000/svg">
<g clip-path="url(#clip0_2002_12)">
<path d="M12.471 24.3613C11.2151 24.3613 10.3204 23.957 9.7871 23.1484C9.25376 22.3226 9.17634 21.2301 9.55484 19.871L13.1677 6.86452C13.7699 6.86452 14.3376 6.83011 14.871 6.76129C15.4215 6.67527 15.9462 6.56344 16.4452 6.42581L12.5226 20.5419C12.3161 21.2989 12.2989 21.8667 12.471 22.2452C12.643 22.6065 13.0043 22.7871 13.5548 22.7871C14.0022 22.7871 14.4065 22.6495 14.7677 22.3742C15.129 22.0989 15.4731 21.6602 15.8 21.0581L16.2645 20.1806H17.271L16.4968 21.6516C16.2043 22.1849 15.8688 22.6581 15.4903 23.071C15.1118 23.4667 14.6731 23.7763 14.1742 24C13.6925 24.2409 13.1247 24.3613 12.471 24.3613ZM8.90968 11.6903L9.16774 10.6839H19.2323L18.9484 11.6903H8.90968ZM21.246 24.3161C20.7191 24.3161 20.2825 24.1581 19.9363 23.8419C19.6051 23.5258 19.4395 23.1344 19.4395 22.6677C19.4395 22.1258 19.6352 21.6742 20.0266 21.3129C20.418 20.9366 20.9073 20.7484 21.4944 20.7484C22.0363 20.7484 22.4728 20.9065 22.804 21.2226C23.1503 21.5387 23.3234 21.9376 23.3234 22.4194C23.3234 22.9462 23.1202 23.3978 22.7137 23.7742C22.3223 24.1355 21.8331 24.3161 21.246 24.3161Z" fill="#150808"></path>
</g>
<defs>
<clipPath id="clip0_2002_12">
<rect width="32" height="32" rx="8" fill="white"></rect>
</clipPath>
</defs>
</svg></svg></g></g></svg></g><g id="dark-icon"><svg xmlns="http://www.w3.org/2000/svg" version="1.1" xmlns:xlink="http://www.w3.org/1999/xlink" width="1000" height="1000"><g><g transform="matrix(31.25,0,0,31.25,0,0)"><svg xmlns="http://www.w3.org/2000/svg" version="1.1" xmlns:xlink="http://www.w3.org/1999/xlink" width="32" height="32"><svg width="32" height="32" viewBox="0 0 32 32" fill="none" xmlns="http://www.w3.org/2000/svg">
<g clip-path="url(#clip0_2002_16)">
<path d="M12.471 24.3613C11.2151 24.3613 10.3204 23.957 9.7871 23.1484C9.25376 22.3226 9.17634 21.2301 9.55484 19.871L13.1677 6.86452C13.7699 6.86452 14.3376 6.83011 14.871 6.76129C15.4215 6.67527 15.9462 6.56344 16.4452 6.42581L12.5226 20.5419C12.3161 21.2989 12.2989 21.8667 12.471 22.2452C12.643 22.6065 13.0043 22.7871 13.5548 22.7871C14.0022 22.7871 14.4065 22.6495 14.7677 22.3742C15.129 22.0989 15.4731 21.6602 15.8 21.0581L16.2645 20.1806H17.271L16.4968 21.6516C16.2043 22.1849 15.8688 22.6581 15.4903 23.071C15.1118 23.4667 14.6731 23.7763 14.1742 24C13.6925 24.2409 13.1247 24.3613 12.471 24.3613ZM8.90968 11.6903L9.16774 10.6839H19.2323L18.9484 11.6903H8.90968ZM21.246 24.3161C20.7191 24.3161 20.2825 24.1581 19.9363 23.8419C19.6051 23.5258 19.4395 23.1344 19.4395 22.6677C19.4395 22.1258 19.6352 21.6742 20.0266 21.3129C20.418 20.9366 20.9073 20.7484 21.4944 20.7484C22.0363 20.7484 22.4728 20.9065 22.804 21.2226C23.1503 21.5387 23.3234 21.9376 23.3234 22.4194C23.3234 22.9462 23.1202 23.3978 22.7137 23.7742C22.3223 24.1355 21.8331 24.3161 21.246 24.3161Z" fill="#FEFCFC"></path>
</g>
<defs>
<clipPath id="clip0_2002_16">
<rect width="32" height="32" rx="8" fill="white"></rect>
</clipPath>
</defs>
</svg></svg></g></g></svg></g></svg>