<svg width="32" height="32" viewBox="0 0 32 32" fill="none" xmlns="http://www.w3.org/2000/svg">
<g clip-path="url(#clip0_1517_1372)">
<rect width="32" height="32" rx="5" fill="#FEFCFC"/>
<path d="M18.432 23.016L18.688 23.784C17.088 24.8933 15.3387 25.448 13.44 25.448C12.7573 25.448 12.1707 25.2027 11.68 24.712C11.1893 24.2213 10.944 23.5707 10.944 22.76V11.432H9.088V10.088H9.792C10.496 10.088 11.1467 9.66133 11.744 8.808C12.3627 7.95467 12.672 7.16533 12.672 6.44H13.504V10.088H17.856V11.432H14.72C13.9093 11.432 13.504 11.816 13.504 12.584V21.736C13.504 23.144 14.016 23.848 15.04 23.848C16.192 23.848 17.3227 23.5707 18.432 23.016ZM22.7165 21.992C23.2072 21.992 23.5805 22.1627 23.8365 22.504C24.1138 22.8453 24.2525 23.2613 24.2525 23.752C24.2525 24.2427 24.0498 24.6587 23.6445 25C23.2392 25.3413 22.7912 25.512 22.3005 25.512C21.8312 25.512 21.4578 25.3413 21.1805 25C20.9245 24.6587 20.7965 24.2533 20.7965 23.784C20.7965 23.3147 20.9992 22.8987 21.4045 22.536C21.8098 22.1733 22.2472 21.992 22.7165 21.992Z" fill="#150808"/>
</g>
<defs>
<clipPath id="clip0_1517_1372">
<rect width="32" height="32" rx="5" fill="white"/>
</clipPath>
</defs>
</svg>
