<svg xmlns="http://www.w3.org/2000/svg" width="32" height="32" viewBox="0 0 24 24"><path fill="currentColor" d="M11.962 21q-1.839 0-3.471-.71q-1.633-.711-2.851-1.93T3.71 15.5T3 12q0-1.883.726-3.525t1.979-2.858t2.94-1.916T12.238 3q1.75 0 3.332.591q1.583.592 2.786 1.64q1.203 1.05 1.923 2.5t.72 3.165q0 2.318-1.336 3.71T16 16h-1.773q-.629 0-1.053.433t-.424 1.044q0 .627.375 1.064t.375 1.009q0 .73-.409 1.09q-.408.36-1.13.36M6.5 12.5q.42 0 .71-.29t.29-.71t-.29-.71t-.71-.29t-.71.29t-.29.71t.29.71t.71.29m3-4q.42 0 .71-.29t.29-.71t-.29-.71t-.71-.29t-.71.29t-.29.71t.29.71t.71.29m5 0q.42 0 .71-.29t.29-.71t-.29-.71t-.71-.29t-.71.29t-.29.71t.29.71t.71.29m3 4q.42 0 .71-.29t.29-.71t-.29-.71t-.71-.29t-.71.29t-.29.71t.29.71t.71.29M11.962 20q.263 0 .4-.115q.138-.116.138-.335q0-.35-.375-.748t-.375-1.31q0-1.088.725-1.79T14.25 15H16q1.88 0 2.94-1.107T20 10.896q0-3.044-2.341-4.97T12.239 4Q8.78 4 6.39 6.325T4 12q0 3.325 2.338 5.663T11.962 20"/></svg>