<svg xmlns="http://www.w3.org/2000/svg" width="32" height="32" viewBox="0 0 24 24"><path fill="currentColor" d="M11.5 9H9q-.213 0-.356-.144T8.5 8.499t.144-.356T9 8h6q.213 0 .356.144t.144.357t-.144.356T15 9h-2.5v6.5q0 .213-.144.356t-.357.144t-.356-.144t-.143-.356zM2.385 20.808v-2.616q0-.343.232-.575t.575-.233H4V6.617h-.811q-.345 0-.574-.233q-.23-.232-.23-.575V3.192q0-.343.232-.575t.575-.232h2.616q.343 0 .575.232t.233.575V4h10.769v-.811q0-.345.232-.574q.232-.23.575-.23h2.616q.343 0 .575.232t.233.575v2.616q0 .343-.233.575t-.575.233H20v10.769h.811q.345 0 .575.232t.23.575v2.616q0 .343-.233.575t-.575.233h-2.616q-.343 0-.575-.233t-.233-.575V20H6.617v.811q0 .345-.233.575q-.232.23-.575.23H3.192q-.343 0-.575-.233t-.232-.575M6.615 19h10.77v-.811q0-.345.232-.574q.232-.23.575-.23H19V6.615h-.811q-.345 0-.574-.232q-.23-.232-.23-.575V5H6.615v.811q0 .345-.232.575t-.575.23H5v10.769h.811q.345 0 .575.232t.23.575zM3.386 5.616h2.23V3.385h-2.23zm15 0h2.23V3.385h-2.23zm0 15h2.23v-2.231h-2.23zm-15 0h2.23v-2.231h-2.23zm2.23-2.231"/></svg>