<svg xmlns="http://www.w3.org/2000/svg" width="32" height="32" viewBox="0 0 24 24"><path fill="currentColor" d="M11.5 13.342v-7.28q-1.88.08-3.19 1.635T7 11h-.5q-1.45 0-2.475 1.025T3 14.5t1.025 2.475T6.5 18h12q1.05 0 1.775-.725T21 15.5t-.725-1.775T18.5 13H17v-2q0-1.239-.55-2.276T15 7V5.81q1.408.779 2.204 2.174T18 11v1h.616q1.436.046 2.41 1.055T22 15.5q0 1.471-1.014 2.486Q19.97 19 18.5 19h-12q-1.871 0-3.185-1.306Q2 16.39 2 14.517q0-1.719 1.175-3.051t2.921-1.431q.252-1.858 1.865-3.416T11.5 5.062q.402 0 .701.299t.299.7v7.281l1.708-1.701q.14-.141.341-.15t.367.155q.159.16.159.354t-.16.354l-2.35 2.35q-.242.242-.565.242t-.565-.242l-2.35-2.35q-.14-.14-.153-.341t.153-.367q.16-.16.35-.162q.192-.003.357.156zm.5-1.811"/></svg>