<svg xmlns="http://www.w3.org/2000/svg" width="32" height="32" viewBox="0 0 24 24"><path fill="currentColor" d="M3.616 19q-.691 0-1.153-.462T2 17.384V6.616q0-.691.463-1.153T3.616 5h16.769q.69 0 1.153.463T22 6.616v10.769q0 .69-.462 1.153T20.385 19zm0-1h16.769q.269 0 .442-.173t.173-.442V6.615q0-.269-.173-.442T20.385 6H3.615q-.269 0-.442.173T3 6.616v10.769q0 .269.173.442t.443.173m5.807-1.52h5.154q.31 0 .54-.22t.23-.549q0-.309-.23-.539t-.54-.23H9.423q-.31 0-.54.22t-.23.55q0 .31.23.539t.54.23M3 18V6zm3.308-8.02q.31 0 .539-.229q.23-.23.23-.54q0-.309-.23-.539t-.54-.23t-.539.23q-.23.23-.23.54t.23.539t.54.23m3.788 0q.31 0 .54-.23t.23-.54t-.23-.539t-.54-.23q-.31 0-.54.23q-.229.23-.229.54t.23.539t.54.23m3.807 0q.31 0 .54-.23t.229-.54t-.23-.539t-.54-.23t-.538.23t-.23.54t.23.539t.539.23m3.692.096q.31 0 .54-.23t.23-.54t-.23-.539t-.54-.23q-.31 0-.54.23t-.229.54t.23.539t.54.23m-11.29 3.154q.31 0 .54-.23t.23-.54t-.23-.539t-.54-.23t-.539.23t-.23.54q0 .31.23.539t.54.23m3.788 0q.31 0 .54-.23t.23-.54t-.23-.539t-.54-.23q-.31 0-.54.23q-.229.23-.229.54t.23.539t.54.23m3.807 0q.31 0 .54-.23t.229-.54t-.23-.539t-.54-.23t-.538.23t-.23.54t.23.539t.539.23m3.788 0q.31 0 .54-.23t.23-.54t-.23-.539t-.54-.23t-.539.23t-.23.54t.23.539t.54.23"/></svg>