<svg xmlns="http://www.w3.org/2000/svg" width="32" height="32" viewBox="0 0 24 24"><path fill="currentColor" d="M16 12v-2h2v2zm0 2h-2v-2h2zm0 2v-2h2v2zm-4.806-8l-2-2H4.615q-.269 0-.442.173T4 6.616v10.769q0 .269.173.442t.443.173H14v-2h2v2h3.385q.269 0 .442-.173t.173-.442v-8.77q0-.269-.173-.442T19.385 8H16v2h-2V8zM4.615 19q-.69 0-1.153-.462T3 17.384V6.616q0-.691.463-1.153T4.615 5h4.31q.323 0 .628.13q.305.132.522.349L11.596 7h7.789q.69 0 1.153.463T21 8.616v8.769q0 .69-.462 1.153T19.385 19zM4 18V6z"/></svg>