<svg xmlns="http://www.w3.org/2000/svg" width="32" height="32" viewBox="0 0 24 24"><path fill="currentColor" d="m12.195 18.083l2.436-6.84q.073-.21-.042-.371q-.115-.16-.325-.16H12.3V5.876q0-.185-.168-.204t-.227.13L9.47 12.679q-.074.212.041.373q.115.16.326.16H11.8v4.8q0 .183.168.202t.227-.13M12.003 21q-1.866 0-3.51-.708q-1.643-.709-2.859-1.924t-1.925-2.856T3 12.003t.709-3.51Q4.417 6.85 5.63 5.634t2.857-1.925T11.997 3t3.51.709q1.643.708 2.859 1.922t1.925 2.857t.709 3.509t-.708 3.51t-1.924 2.859t-2.856 1.925t-3.509.709M12 20q3.325 0 5.663-2.337T20 12t-2.337-5.663T12 4T6.337 6.338T4 12t2.338 5.663T12 20"/></svg>