<svg xmlns="http://www.w3.org/2000/svg" width="32" height="32" viewBox="0 0 24 24"><path fill="currentColor" d="m8.033 17.058l1.16-3h5.446l1.153 3h-1.961q-.196 0-.334.137t-.137.334t.137.333t.334.138h3.756q.196 0 .333-.138t.138-.333t-.138-.334t-.334-.137h-.682L12.706 6.354q-.067-.171-.208-.263Q12.358 6 12.181 6h-.452q-.177 0-.317.091q-.14.092-.208.263L7 17.058h-.586q-.197 0-.334.137t-.138.334t.138.333t.333.138h3.631q.196 0 .334-.138t.138-.333t-.15-.334t-.347-.137zm1.515-3.914l2.335-5.963h.098l2.296 5.963zM4.616 21q-.691 0-1.153-.462T3 19.385V4.615q0-.69.463-1.152T4.615 3h14.77q.69 0 1.152.463T21 4.616v14.769q0 .69-.463 1.153T19.385 21zm0-1h14.769q.23 0 .423-.192t.192-.424V4.616q0-.231-.192-.424T19.385 4H4.615q-.23 0-.423.192T4 4.615v14.77q0 .23.192.423t.423.192M4 20V4z"/></svg>