<svg xmlns="http://www.w3.org/2000/svg" width="32" height="32" viewBox="0 0 24 24"><!-- Icon from Material Symbols Light by Google - https://github.com/google/material-design-icons/blob/master/LICENSE --><path fill="currentColor" d="M16.27 21.775q-.222 0-.37-.149t-.15-.36q0-.21.15-.353t.37-.144q1.88-.019 3.18-1.328t1.32-3.172q0-.217.148-.371q.149-.154.36-.154q.21 0 .354.154q.143.154.143.371q0 2.308-1.599 3.907t-3.907 1.599M2.73 8.25q-.213 0-.359-.144q-.146-.143-.146-.356q0-2.308 1.61-3.916t3.896-1.609q.218 0 .371.144q.154.144.154.357t-.154.359t-.371.146Q5.85 3.25 4.55 4.56T3.23 7.73q0 .222-.143.37q-.144.15-.357.15m15.514-2.883q.166.166.166.354q0 .189-.166.354l-6.003 6.01q-.141.146-.342.14t-.347-.14q-.165-.147-.156-.357t.156-.357l5.985-6.004q.165-.165.354-.165t.353.165m1.622 3.021q.165.166.165.357q0 .192-.165.357l-5.304 5.285q-.14.14-.351.15t-.357-.15q-.146-.146-.14-.357q.007-.21.153-.357l5.285-5.284q.165-.166.357-.166t.357.166M5.698 18.264q-2.006-2.006-1.996-4.802T5.737 8.64l2.28-2.282q.248-.242.578-.242t.572.242l.43.43q.27.27.415.593t.192.695l3.623-3.629q.165-.165.357-.165t.357.165t.165.357t-.165.357l-4.345 4.344l-1.567 1.58l.494.495q.958.958.946 2.308t-.975 2.313l-.39.39q-.14.14-.351.15t-.357-.15q-.146-.151-.146-.359t.146-.354l.385-.385q.671-.671.685-1.603t-.656-1.6l-.637-.631q-.242-.244-.242-.579t.236-.57l1.124-1.1q.396-.396.396-.962t-.396-.962l-.289-.289l-2.158 2.138q-1.719 1.72-1.748 4.111t1.69 4.11t4.143 1.72t4.142-1.72l5.321-5.326q.166-.165.357-.165q.192 0 .357.165t.165.357t-.165.356l-5.345 5.32q-2.026 2.027-4.832 2.027t-4.831-2.026m4.821-4.84"/></svg>