<svg xmlns="http://www.w3.org/2000/svg" width="32" height="32" viewBox="0 0 24 24"><path fill="currentColor" d="M7.077 16.077q-1.692 0-2.884-1.192T3 12t1.193-2.885t2.884-1.193h3.039q.212 0 .356.144t.144.357t-.144.356t-.356.143H7.075q-1.267 0-2.171.904T4 12t.904 2.173t2.17.904h3.042q.212 0 .356.144t.144.357t-.144.356t-.356.143zM9 12.5q-.213 0-.356-.144t-.144-.357t.144-.356T9 11.5h6q.213 0 .356.144t.144.357t-.144.356T15 12.5zm4.885 3.577q-.213 0-.357-.144t-.144-.357t.144-.356t.356-.143h3.041q1.267 0 2.171-.904T20 12t-.904-2.173t-2.17-.904h-3.041q-.213 0-.357-.144q-.143-.144-.143-.357t.143-.356t.357-.143h3.038q1.692 0 2.885 1.192T21 12t-1.193 2.885t-2.884 1.193z"/></svg>