<svg xmlns="http://www.w3.org/2000/svg" width="32" height="32" viewBox="0 0 24 24"><path fill="currentColor" d="M7.35 20.5q-.336 0-.701-.15T6.023 20q-.22-.188-.486-.344T5 19.5q-.194 0-.347-.153T4.5 19q0-.213.153-.357q.153-.143.347-.143q.356 0 .714.147q.357.147.632.353q.2.164.467.332t.537.168q.264 0 .53-.168T8.349 19q.262-.206.629-.353t.698-.147q.337 0 .704.147t.623.353q.22.164.487.332t.536.168q.264 0 .53-.168t.468-.332q.28-.206.639-.353q.357-.147.688-.147q.356 0 .71.147q.356.147.636.353q.2.164.47.332t.534.168q.27 0 .537-.168t.486-.332q.262-.206.626-.353t.701-.147q.194 0 .347.143t.153.357q0 .194-.153.347t-.347.153q-.27 0-.537.166q-.267.165-.486.334q-.287.2-.651.35t-.701.15t-.701-.15t-.626-.35q-.22-.188-.487-.344t-.536-.156q-.263 0-.53.156t-.468.344q-.28.2-.638.35t-.69.15q-.336 0-.704-.15t-.642-.35q-.2-.188-.467-.344T9.65 19.5q-.263 0-.53.156T8.651 20q-.261.2-.626.35t-.676.15M12 15.808q-2.236 0-3.772-1.536T6.692 10.5V3.725q0-.212.174-.372q.173-.16.384-.16q.237 0 .397.16t.16.397v6.75q0 1.764 1.215 2.978T12 14.692t2.978-1.214t1.214-2.978V3.725q0-.212.174-.372q.173-.16.384-.16q.237 0 .397.16t.16.397v6.75q0 2.237-1.535 3.772q-1.536 1.536-3.772 1.536"/></svg>