<svg xmlns="http://www.w3.org/2000/svg" width="32" height="32" viewBox="0 0 24 24"><path fill="currentColor" d="m15.558 12.99l-1.195-1.174q-.129-.13-.313-.136t-.314.141q-.128.129-.119.314q.01.184.139.313l1.679 1.679q.242.242.565.242t.566-.242l1.698-1.698q.128-.129.128-.294q0-.166-.128-.314q-.13-.148-.317-.138t-.316.138l-1.189 1.17V9.75q0-.19-.126-.316q-.125-.126-.316-.126t-.316.126t-.126.316zM4.616 19q-.691 0-1.153-.462T3 17.384V6.616q0-.691.463-1.153T4.615 5h14.77q.69 0 1.152.463T21 6.616v10.769q0 .69-.463 1.153T19.385 19zm0-1h14.769q.23 0 .423-.192t.192-.424V6.616q0-.231-.192-.424T19.385 6H4.615q-.23 0-.423.192T4 6.616v10.769q0 .23.192.423t.423.192M4 18V6zm2.692-7.808h1.616v2.558q0 .19.126.316t.316.126t.316-.126t.126-.316v-2.558h1.616v4.058q0 .19.126.316t.316.126t.316-.126t.126-.316V10q0-.31-.191-.501T11 9.308H6.5q-.31 0-.501.191q-.191.192-.191.501v4.25q0 .19.126.316q.125.126.316.126t.316-.126q.126-.126.126-.316z"/></svg>