<svg xmlns="http://www.w3.org/2000/svg" width="32" height="32" viewBox="0 0 24 24"><path fill="currentColor" d="M9.562 14.566h4.877l.952 2.694q.061.16.176.238q.116.079.281.079q.27 0 .409-.21q.14-.211.054-.461l-3.78-10.454q-.048-.121-.154-.19t-.233-.07h-.288q-.127 0-.233.07t-.154.19L7.69 16.906q-.085.244.052.458q.136.213.405.213q.171 0 .284-.079t.18-.244zm.33-.943l2.058-5.796h.1l2.058 5.796zM4.616 21q-.691 0-1.153-.462T3 19.385V4.615q0-.69.463-1.152T4.615 3h14.77q.69 0 1.152.463T21 4.616v14.769q0 .69-.463 1.153T19.385 21zm0-1h14.769q.23 0 .423-.192t.192-.424V4.616q0-.231-.192-.424T19.385 4H4.615q-.23 0-.423.192T4 4.615v14.77q0 .23.192.423t.423.192M4 4v16z"/></svg>