<svg xmlns="http://www.w3.org/2000/svg" id="img" width="32" height="32" viewBox="0 0 24 24"><path fill="currentColor" d="M11.5 13.075v4.194q0 .214.143.357t.357.143t.357-.143t.143-.357v-4.194l1.746 1.746q.073.073.164.11q.092.036.183.034q.091-.003.19-.04q.098-.036.17-.11q.16-.165.163-.353q.003-.189-.162-.354l-2.389-2.389q-.13-.13-.267-.183q-.136-.053-.298-.053t-.298.053t-.267.183l-2.389 2.389q-.146.146-.153.344t.159.364q.165.159.354.162t.353-.162zM6.616 21q-.691 0-1.153-.462T5 19.385V4.615q0-.69.463-1.152T6.616 3h7.213q.323 0 .628.13t.522.349L18.52 7.02q.217.218.348.522t.131.628v11.214q0 .69-.463 1.153T17.385 21zM14 7.192V4H6.616q-.231 0-.424.192T6 4.615v14.77q0 .23.192.423t.423.192h10.77q.23 0 .423-.192t.192-.424V8h-3.192q-.349 0-.578-.23T14 7.192M6 4v4zv16z"/></svg>